{"glyphs":{":":{"x_min":0,"x_max":212,"ha":212,"o":"m 161 441 b 160 455 156 462 142 468 b 130 474 115 475 103 468 b 81 457 82 439 80 416 b 79 394 78 373 77 351 b 75 318 160 317 161 351 b 162 380 164 411 161 441 z m 95 0 b 70 -10 63 -25 58 -51 b 54 -75 52 -98 50 -122 b 47 -160 149 -162 151 -122 b 152 -93 156 -63 152 -34 b 148 -9 122 11 95 0 z"},"$":{"x_min":0,"x_max":624,"ha":624,"o":"m 482 245 b 440 295 391 335 339 373 b 341 495 345 616 350 738 b 368 723 384 704 396 683 b 405 666 455 672 445 690 b 424 731 390 761 351 779 b 353 833 355 887 358 941 b 358 961 307 962 306 941 b 304 892 302 844 300 795 b 253 803 204 797 159 774 b 107 747 67 696 54 639 b 41 577 61 516 97 465 b 138 409 196 370 251 331 b 263 322 274 314 286 305 b 284 160 286 16 293 -128 b 169 -103 90 70 158 180 b 169 197 118 204 108 188 b 47 91 94 -52 181 -116 b 214 -140 254 -156 295 -162 b 297 -202 299 -242 302 -282 b 304 -304 357 -303 356 -282 b 353 -244 350 -205 348 -166 b 408 -164 467 -144 512 -105 b 627 -3 563 145 482 245 z m 287 411 b 243 445 199 483 170 531 b 128 597 114 690 185 742 b 220 769 261 774 299 764 b 294 646 290 529 287 411 z m 476 -9 b 466 -73 409 -119 347 -129 b 347 -129 347 -129 346 -129 b 340 1 338 131 338 261 b 363 239 386 215 406 189 b 451 134 488 64 476 -9 z"},"?":{"x_min":0,"x_max":524,"ha":524,"o":"m 473 649 b 470 745 407 834 305 835 b 209 836 110 779 69 691 b 24 598 61 483 164 451 b 184 445 223 467 190 477 b 68 515 89 673 165 745 b 206 785 285 824 343 795 b 397 768 396 700 388 649 b 368 528 316 412 276 297 b 257 240 240 182 227 124 b 213 61 199 -7 208 -71 b 215 -117 322 -118 327 -71 b 334 -10 336 50 348 111 b 361 174 380 236 398 297 b 431 409 478 531 473 649 z m 330 -215 b 332 -179 237 -178 238 -215 b 239 -257 241 -304 272 -336 b 282 -347 313 -348 320 -333 b 337 -298 329 -253 330 -215 z"},"<":{"x_min":0,"x_max":460,"ha":460,"o":"m 385 170 b 346 182 306 190 265 197 b 245 200 225 203 206 208 b 195 210 155 220 155 223 b 156 230 189 251 197 256 b 214 267 231 277 249 287 b 286 308 324 332 363 349 b 397 364 356 383 335 376 b 278 358 222 341 167 315 b 132 298 57 268 50 222 b 44 174 128 161 159 153 b 216 140 275 133 332 118 b 354 113 387 111 404 129 b 420 147 403 164 385 170 z"},"'":{"x_min":0,"x_max":234,"ha":234,"o":"m 83 794 b 75 769 66 745 59 719 b 54 697 45 675 54 653 b 60 638 91 638 102 646 b 143 676 161 733 182 778 b 200 817 96 831 83 794 z"},"=":{"x_min":0,"x_max":624,"ha":624,"o":"m 290 404 b 362 407 434 411 506 415 b 522 416 554 421 554 443 b 554 464 521 471 506 471 b 432 468 358 464 285 457 b 212 451 141 437 68 428 b 38 424 49 395 76 397 b 147 402 219 400 290 404 z m 573 281 b 564 303 528 303 510 301 b 436 295 362 287 288 278 b 219 269 141 265 77 239 b 56 230 62 210 84 209 b 157 202 234 216 307 223 b 383 231 460 238 537 245 b 554 246 581 260 573 281 z"},"a":{"x_min":0,"x_max":526,"ha":526,"o":"m 512 186 b 491 140 466 92 433 53 b 426 46 419 37 411 31 b 399 21 398 16 389 23 b 375 33 370 68 366 82 b 340 191 350 303 348 414 b 348 459 238 460 230 416 b 218 423 204 427 189 430 b 135 438 80 415 44 375 b -22 299 -44 180 -14 85 b 0 40 35 -1 85 -1 b 133 -1 164 25 187 64 b 207 100 221 138 232 178 b 240 115 256 39 311 1 b 356 -30 419 -18 458 15 b 506 56 536 121 560 178 b 568 198 520 203 512 186 z m 187 217 b 179 182 170 148 156 115 b 146 92 130 50 104 36 b 84 58 81 106 80 130 b 78 171 82 212 93 251 b 104 286 121 322 143 351 b 155 366 171 387 192 382 b 201 380 209 374 217 367 b 207 317 198 267 187 217 z"},"L":{"x_min":0,"x_max":394,"ha":394,"o":"m 97 -326 b 139 -301 183 -277 227 -255 b 236 -269 247 -280 260 -289 b 271 -296 301 -297 306 -282 b 314 -262 307 -240 303 -219 b 425 -166 554 -131 690 -136 b 722 -137 722 -107 690 -106 b 554 -101 422 -132 297 -182 b 294 -165 292 -149 290 -132 b 282 -70 272 -9 265 52 b 250 171 237 290 230 410 b 215 655 224 898 231 1143 b 232 1189 120 1189 113 1143 b 78 898 82 643 103 397 b 114 273 129 148 151 26 b 162 -34 174 -93 189 -151 b 195 -173 201 -198 210 -221 b 158 -246 107 -274 58 -304 b 31 -321 80 -336 97 -326 z"},"3":{"x_min":0,"x_max":729,"ha":729,"o":"m 259 -171 b 152 -106 157 34 150 143 b 148 181 59 180 54 143 b 39 20 64 -128 172 -204 b 277 -278 428 -262 529 -189 b 723 -49 730 247 542 396 b 497 431 438 461 376 477 b 410 500 442 526 471 556 b 499 586 523 619 525 662 b 526 702 501 735 467 754 b 394 793 294 774 222 743 b 147 711 69 659 51 575 b 47 558 96 555 100 575 b 116 642 179 685 237 712 b 270 728 305 739 342 743 b 372 746 424 746 446 719 b 491 663 389 587 352 559 b 313 528 271 503 227 484 b 202 478 178 469 156 456 b 137 444 133 426 151 411 b 171 396 205 395 227 403 b 242 408 257 414 272 420 b 337 435 413 397 461 355 b 527 300 568 222 574 136 b 580 48 553 -43 494 -109 b 436 -173 342 -221 259 -171 z"},";":{"x_min":0,"x_max":260,"ha":260,"o":"m 193 491 b 186 508 143 507 141 487 b 136 451 132 414 127 377 b 122 347 207 343 210 377 b 213 417 208 454 193 491 z m 138 4 b 120 -93 89 -185 52 -277 b 36 -316 128 -322 144 -292 b 169 -243 186 -192 198 -139 b 209 -88 216 -38 190 8 b 181 24 141 25 138 4 z"},"J":{"x_min":0,"x_max":1162,"ha":1162,"o":"m 1237 1141 b 1239 1156 1221 1164 1208 1165 b 1108 1179 1002 1138 909 1105 b 905 1103 900 1101 895 1099 b 894 1102 893 1105 891 1107 b 884 1122 835 1125 837 1103 b 838 1095 839 1086 839 1078 b 763 1048 688 1014 612 980 b 512 935 413 889 315 839 b 224 793 132 746 54 679 b 35 663 86 652 100 664 b 176 728 265 773 353 817 b 441 862 531 904 621 945 b 694 977 769 1007 844 1034 b 853 950 865 866 872 782 b 882 672 889 562 895 452 b 907 247 922 19 843 -176 b 813 -251 760 -341 673 -354 b 576 -369 491 -297 444 -219 b 345 -54 348 173 412 349 b 448 449 510 563 606 617 b 746 697 775 455 770 366 b 769 346 823 345 824 366 b 828 426 820 486 801 543 b 786 588 764 635 718 655 b 618 698 519 617 460 543 b 321 369 279 119 333 -95 b 358 -197 409 -296 499 -355 b 584 -410 696 -423 788 -377 b 885 -329 941 -223 973 -124 b 1011 -5 1022 120 1021 244 b 1021 390 1007 538 990 684 b 977 809 961 941 913 1059 b 1007 1091 1098 1117 1198 1121 b 1210 1122 1234 1125 1237 1141 z"},"V":{"x_min":0,"x_max":1103,"ha":1103,"o":"m 1201 1226 b 1134 1054 1070 880 1009 706 b 951 540 899 370 823 210 b 791 142 751 43 675 13 b 598 -16 529 93 495 148 b 406 289 364 457 321 616 b 268 817 219 1018 173 1220 b 167 1247 137 1255 112 1255 b 95 1255 46 1247 50 1220 b 80 1020 130 823 187 629 b 238 450 292 266 407 116 b 454 55 520 -10 598 -25 b 678 -41 751 0 798 63 b 849 132 884 216 917 295 b 954 386 986 479 1017 572 b 1091 789 1169 1004 1252 1218 b 1260 1239 1208 1244 1201 1226 z"},"\"":{"x_min":0,"x_max":360,"ha":360,"o":"m 93 830 b 76 775 48 711 50 653 b 51 625 103 633 114 648 b 149 696 166 760 186 815 b 200 855 104 864 93 830 z m 223 785 b 209 740 197 692 200 645 b 201 622 244 628 253 641 b 281 680 298 725 310 771 b 319 809 233 816 223 785 z"},"7":{"x_min":0,"x_max":606,"ha":606,"o":"m 80 670 b 129 677 178 686 226 698 b 279 711 332 732 387 730 b 416 729 447 722 463 695 b 474 677 472 655 470 634 b 464 581 458 529 444 477 b 425 404 401 332 378 260 b 362 260 346 259 329 255 b 318 252 313 243 319 233 b 326 223 346 225 356 228 b 360 229 364 230 368 230 b 331 115 299 -1 293 -122 b 292 -163 397 -167 406 -130 b 436 -12 454 108 484 226 b 502 227 520 228 538 229 b 568 232 557 261 531 259 b 518 258 505 258 492 257 b 519 358 548 459 546 564 b 545 611 539 667 512 708 b 490 743 446 756 407 760 b 353 764 301 751 250 737 b 189 720 129 707 67 697 b 34 692 55 666 80 670 z"},"S":{"x_min":0,"x_max":1109,"ha":1109,"o":"m 622 163 b 554 68 587 -77 671 -151 b 751 -220 879 -234 967 -171 b 1008 -141 1040 -95 1053 -46 b 1069 11 1052 73 1020 121 b 948 227 817 280 702 324 b 577 373 444 416 336 498 b 239 573 160 687 164 813 b 167 938 245 1052 336 1131 b 433 1215 563 1272 691 1280 b 767 1285 845 1268 902 1214 b 958 1160 968 1083 962 1009 b 949 841 881 686 828 529 b 819 501 883 496 892 519 b 945 653 986 793 1009 936 b 1027 1054 1024 1179 919 1255 b 816 1330 680 1323 562 1295 b 446 1266 338 1209 247 1132 b 152 1051 66 947 52 819 b 38 697 101 578 188 496 b 286 405 411 351 534 305 b 659 258 807 220 908 129 b 960 81 998 9 985 -64 b 973 -133 896 -182 830 -180 b 675 -175 587 33 672 155 b 684 171 633 178 622 163 z"},"}":{"x_min":0,"x_max":580,"ha":580,"o":"m 526 260 b 443 401 449 569 395 719 b 372 780 334 846 281 887 b 238 919 169 943 122 907 b 104 893 149 881 161 889 b 187 909 229 876 248 859 b 268 839 283 817 293 790 b 317 732 324 668 330 606 b 339 502 344 391 383 292 b 353 285 327 268 313 236 b 281 166 303 81 303 7 b 304 -64 296 -145 266 -210 b 254 -237 237 -263 211 -277 b 176 -297 136 -290 99 -280 b 86 -277 63 -274 54 -287 b 45 -299 53 -308 66 -313 b 131 -336 206 -350 272 -322 b 332 -297 370 -240 390 -180 b 416 -107 424 -30 419 46 b 417 87 412 129 416 171 b 418 190 424 204 429 222 b 429 222 429 222 430 222 b 431 222 433 221 435 221 b 455 213 550 219 526 260 z"},"Z":{"x_min":0,"x_max":1099,"ha":1099,"o":"m 766 -97 b 824 -88 893 -71 951 -87 b 979 -94 1020 -97 1041 -74 b 1061 -52 1041 -29 1018 -22 b 944 0 871 -7 796 -16 b 723 -26 650 -39 577 -54 b 506 -69 435 -86 364 -104 b 355 -106 346 -109 337 -111 b 507 24 666 176 787 354 b 822 358 856 362 891 367 b 930 372 916 408 881 406 b 860 405 839 403 817 400 b 862 472 900 547 931 628 b 992 788 1037 1009 875 1127 b 751 1217 569 1198 432 1155 b 343 1127 259 1083 185 1026 b 161 1007 5 881 63 853 b 72 849 89 846 98 853 b 106 859 109 868 98 874 b 95 876 161 948 167 954 b 196 983 228 1010 262 1033 b 323 1074 389 1107 459 1128 b 582 1166 789 1193 873 1066 b 918 998 916 910 898 833 b 880 753 848 674 813 600 b 777 524 733 451 684 382 b 640 375 597 368 554 361 b 518 356 541 328 568 332 b 597 336 625 339 654 341 b 617 292 577 246 534 201 b 406 64 260 -55 108 -165 b 64 -196 116 -230 153 -227 b 291 -217 425 -164 559 -135 b 628 -120 697 -107 766 -97 z"},"x":{"x_min":0,"x_max":413,"ha":413,"o":"m 398 176 b 374 131 346 82 306 48 b 279 26 248 14 219 41 b 202 56 190 76 181 97 b 165 131 154 165 146 201 b 199 280 256 357 317 430 b 334 451 284 459 272 445 b 223 389 176 330 132 269 b 125 316 121 363 117 411 b 112 459 -3 459 -6 411 b -12 335 3 256 29 184 b 34 170 40 154 47 139 b 19 94 -7 47 -31 0 b -41 -19 9 -24 19 -8 b 36 25 55 57 74 88 b 92 58 116 31 145 13 b 199 -19 265 -20 320 10 b 380 43 417 110 447 168 b 457 187 408 192 398 176 z"},")":{"x_min":0,"x_max":587,"ha":587,"o":"m 423 790 b 398 852 367 916 313 957 b 267 991 200 1008 143 1001 b 108 998 132 971 157 973 b 212 977 250 931 275 888 b 299 847 314 802 327 758 b 358 653 383 549 397 441 b 411 335 417 229 409 122 b 401 26 388 -77 348 -166 b 330 -206 306 -245 268 -269 b 222 -298 164 -288 114 -275 b 97 -271 73 -269 59 -282 b 47 -291 46 -307 62 -314 b 170 -362 304 -366 398 -285 b 482 -211 507 -89 523 16 b 563 274 518 549 423 790 z"},"&":{"x_min":0,"x_max":806,"ha":806,"o":"m 601 82 b 676 174 733 278 756 395 b 760 414 707 416 703 395 b 679 281 621 178 546 89 b 511 48 470 4 425 -34 b 361 18 311 90 277 168 b 355 248 436 327 505 416 b 571 500 650 613 648 725 b 646 843 528 889 425 867 b 198 818 146 518 175 325 b 181 287 190 250 203 213 b 163 170 124 127 90 79 b 61 39 40 -14 55 -64 b 86 -168 236 -165 318 -139 b 357 -127 393 -109 426 -86 b 494 -129 574 -155 662 -153 b 696 -153 696 -122 662 -122 b 587 -121 519 -98 461 -60 b 514 -19 560 32 601 82 z m 275 681 b 300 733 335 780 386 810 b 409 824 437 835 465 836 b 499 836 515 822 526 792 b 547 739 531 681 512 630 b 491 578 465 529 434 483 b 380 401 312 329 245 258 b 236 288 230 318 227 349 b 214 460 228 579 275 681 z m 249 -120 b 179 -128 118 -87 139 -11 b 153 42 200 88 239 128 b 276 55 328 -11 391 -60 b 347 -91 300 -113 249 -120 z"},"_":{"x_min":0,"x_max":495,"ha":495,"o":"m 443 -90 b 435 -67 396 -66 377 -68 b 318 -76 260 -84 202 -94 b 155 -101 93 -103 54 -132 b 43 -140 57 -152 65 -155 b 116 -169 177 -156 229 -150 b 288 -143 347 -136 406 -128 b 423 -125 452 -112 443 -90 z"},"v":{"x_min":0,"x_max":486,"ha":486,"o":"m 492 187 b 449 182 407 191 371 210 b 386 262 398 314 405 367 b 411 421 417 504 365 540 b 323 569 266 548 240 508 b 209 460 202 397 214 343 b 228 281 265 232 314 200 b 304 167 292 135 279 103 b 267 76 253 40 230 21 b 213 7 214 13 202 26 b 194 36 187 46 181 58 b 153 110 135 171 122 229 b 107 291 109 364 83 423 b 67 459 -19 454 -27 414 b -35 379 -25 339 -19 304 b -12 269 -4 233 7 199 b 27 134 57 61 109 15 b 151 -22 211 -38 262 -8 b 316 24 338 105 356 161 b 358 166 359 171 361 176 b 406 158 457 152 506 159 b 540 164 518 191 492 187 z m 340 299 b 336 280 331 262 326 244 b 289 281 264 332 262 388 b 261 417 266 446 277 473 b 282 487 289 501 300 512 b 319 531 335 515 344 496 b 371 438 353 358 340 299 z"},"O":{"x_min":0,"x_max":1043,"ha":1043,"o":"m 914 215 b 1038 499 1013 851 860 1120 b 789 1243 676 1348 528 1355 b 382 1363 250 1280 173 1160 b 83 1023 43 838 51 675 b 56 578 88 423 178 363 b 174 334 171 306 170 278 b 163 144 186 -12 301 -98 b 410 -179 564 -150 672 -83 b 783 -14 863 96 914 215 z m 710 -2 b 627 -80 487 -154 374 -98 b 239 -30 240 155 254 284 b 256 302 258 320 261 338 b 268 338 275 338 283 339 b 317 343 294 370 269 367 b 268 367 268 367 267 367 b 291 481 338 590 402 688 b 424 721 326 734 306 703 b 256 627 220 543 197 456 b 190 473 185 490 180 507 b 161 571 155 638 157 705 b 160 831 191 963 246 1077 b 296 1179 387 1290 509 1299 b 637 1310 743 1202 803 1100 b 940 865 973 564 892 305 b 856 190 798 81 710 -2 z"},"(":{"x_min":0,"x_max":587,"ha":587,"o":"m 528 -282 b 513 -269 490 -271 472 -275 b 429 -287 377 -297 335 -278 b 299 -262 273 -230 254 -197 b 207 -114 193 -15 182 78 b 159 291 188 510 248 715 b 263 767 277 820 301 869 b 326 918 368 978 430 973 b 455 971 479 998 443 1001 b 391 1007 337 992 291 967 b 242 941 207 887 184 838 b 130 721 97 592 74 466 b 50 337 44 203 57 72 b 68 -38 88 -164 159 -253 b 248 -364 403 -368 525 -314 b 540 -307 540 -291 528 -282 z"},"C":{"x_min":0,"x_max":996,"ha":996,"o":"m 241 -237 b 330 -300 447 -294 544 -253 b 653 -205 738 -110 804 -13 b 876 93 923 213 946 339 b 950 357 898 359 893 339 b 856 148 758 -40 608 -166 b 533 -228 428 -275 334 -223 b 253 -178 212 -72 190 13 b 140 207 163 426 226 615 b 257 709 300 801 353 886 b 400 960 461 1042 542 1082 b 685 1154 701 913 703 829 b 706 701 689 574 672 448 b 669 428 723 426 726 448 b 745 581 763 714 759 849 b 757 949 750 1089 638 1129 b 535 1167 416 1098 343 1029 b 260 949 199 844 153 739 b 62 528 20 275 74 48 b 100 -59 149 -171 241 -237 z"},"W":{"x_min":0,"x_max":1558,"ha":1558,"o":"m 1498 1133 b 1438 840 1389 541 1301 255 b 1281 187 1257 120 1226 56 b 1200 1 1158 -74 1093 -88 b 1029 -101 976 -39 949 10 b 917 69 895 133 877 198 b 835 350 825 507 810 664 b 805 710 689 709 691 664 b 691 661 692 659 692 657 b 692 657 692 657 692 657 b 675 531 658 404 626 281 b 610 221 591 162 567 105 b 544 51 518 -15 465 -46 b 401 -83 353 -8 324 40 b 296 87 275 139 258 191 b 222 307 208 429 196 549 b 181 700 178 853 175 1005 b 174 1054 50 1054 50 1005 b 49 848 57 691 77 536 b 93 401 118 263 176 139 b 221 41 308 -96 432 -89 b 567 -82 619 83 653 190 b 679 272 697 355 712 440 b 723 358 739 277 762 198 b 801 68 870 -93 1017 -125 b 1169 -157 1255 -18 1304 103 b 1364 251 1399 409 1434 565 b 1476 753 1513 943 1548 1133 b 1551 1151 1502 1152 1498 1133 z"},"A":{"x_min":0,"x_max":1082,"ha":1082,"o":"m 1031 712 b 1027 725 1005 725 995 724 b 975 722 955 719 936 717 b 933 738 931 759 928 779 b 913 887 896 999 858 1102 b 831 1178 780 1280 687 1286 b 596 1291 536 1193 498 1123 b 411 960 359 775 317 594 b 232 570 147 544 63 515 b 30 504 69 482 90 489 b 162 513 235 536 309 556 b 306 543 303 530 300 517 b 246 274 212 28 172 -217 b 169 -235 218 -236 222 -217 b 270 46 306 313 368 573 b 520 613 674 645 830 668 b 834 598 836 527 839 457 b 848 217 855 -24 871 -264 b 874 -315 1003 -314 1001 -264 b 992 -30 975 204 959 438 b 954 520 948 602 939 684 b 963 686 987 689 1011 692 b 1021 693 1035 700 1031 712 z m 377 610 b 406 727 440 843 483 957 b 518 1047 555 1147 624 1218 b 635 1231 654 1250 672 1252 b 702 1257 720 1226 732 1204 b 756 1161 770 1114 781 1066 b 807 947 820 825 827 702 b 676 679 525 648 377 610 z"},"f":{"x_min":0,"x_max":324,"ha":324,"o":"m 316 188 b 252 155 187 122 123 89 b 117 233 117 379 109 523 b 106 572 -14 572 -15 523 b -20 373 -19 220 -3 70 b 4 0 12 -74 57 -131 b 124 -214 264 -204 293 -92 b 306 -43 291 9 248 38 b 220 57 189 64 157 65 b 223 99 288 133 353 167 b 380 181 333 196 316 188 z m 242 -44 b 244 -67 240 -92 229 -113 b 222 -126 205 -154 185 -148 b 174 -145 163 -126 158 -117 b 133 -74 128 -20 125 32 b 179 35 234 22 242 -44 z"},"Q":{"x_min":0,"x_max":1043,"ha":1043,"o":"m 860 1120 b 789 1243 676 1348 528 1355 b 382 1363 250 1280 173 1160 b 83 1023 43 838 51 675 b 56 578 88 423 178 363 b 174 334 171 306 170 278 b 163 144 186 -12 301 -98 b 357 -139 424 -152 491 -146 b 411 -169 334 -201 262 -242 b 235 -257 282 -272 299 -263 b 445 -185 606 -154 771 -158 b 786 -158 815 -152 815 -133 b 815 -113 785 -108 771 -108 b 711 -107 651 -112 591 -122 b 620 -112 647 -98 672 -83 b 783 -14 863 96 914 215 b 1038 499 1013 851 860 1120 z m 710 -2 b 627 -80 487 -154 374 -98 b 239 -30 240 155 254 284 b 256 302 258 320 261 338 b 268 338 275 338 283 339 b 317 343 294 370 269 367 b 268 367 268 367 267 367 b 291 481 338 590 402 688 b 424 721 326 734 306 703 b 256 627 220 543 197 456 b 191 473 185 490 180 507 b 161 571 155 638 157 705 b 160 831 191 963 246 1077 b 296 1179 387 1290 509 1299 b 637 1310 743 1202 803 1100 b 940 865 973 564 892 305 b 856 190 798 81 710 -2 z"},"w":{"x_min":0,"x_max":662,"ha":662,"o":"m 663 195 b 640 189 613 193 587 201 b 591 215 593 228 596 240 b 611 316 652 523 530 532 b 422 541 381 402 405 318 b 422 260 472 213 530 186 b 518 144 501 104 478 69 b 465 51 443 22 418 31 b 401 37 388 63 380 78 b 356 124 350 179 342 230 b 335 274 224 274 228 230 b 228 223 229 217 230 211 b 225 163 218 115 196 72 b 187 53 172 23 151 14 b 126 5 112 48 107 66 b 75 170 94 287 105 393 b 110 437 -6 439 -12 393 b -23 316 -29 237 -14 160 b -2 95 29 22 91 -8 b 144 -34 195 -16 228 31 b 242 51 253 73 260 96 b 290 28 342 -25 427 -15 b 513 -4 556 87 579 169 b 616 160 654 160 688 171 b 719 181 681 200 663 195 z m 558 366 b 555 320 550 271 540 223 b 529 229 520 235 512 242 b 476 272 454 314 451 361 b 448 403 459 456 492 485 b 560 548 559 398 558 366 z"},"-":{"x_min":0,"x_max":428,"ha":428,"o":"m 327 339 b 241 337 153 334 68 317 b 45 313 43 291 68 288 b 153 276 241 276 327 280 b 344 280 378 286 378 309 b 378 332 343 339 327 339 z"},"E":{"x_min":0,"x_max":1170,"ha":1170,"o":"m 265 234 b 289 113 319 -20 406 -113 b 495 -209 628 -227 752 -202 b 891 -175 1019 -108 1116 -4 b 1134 14 1085 24 1072 11 b 932 -135 601 -292 469 -56 b 412 45 395 166 380 279 b 377 302 375 325 372 348 b 404 361 437 374 469 385 b 521 404 573 421 625 436 b 678 452 735 462 787 480 b 800 485 811 495 803 509 b 795 523 769 524 756 522 b 700 514 644 494 591 477 b 536 459 482 439 429 417 b 409 408 389 399 369 390 b 361 487 360 583 363 680 b 365 772 373 864 380 956 b 427 975 475 994 524 1010 b 677 1059 829 1079 989 1084 b 1000 1085 1023 1088 1025 1102 b 1028 1116 1010 1125 999 1126 b 833 1140 661 1105 503 1053 b 464 1040 424 1026 384 1011 b 387 1054 390 1098 391 1141 b 392 1187 287 1183 278 1141 b 265 1079 256 1016 249 952 b 183 922 119 887 59 850 b 30 831 82 819 98 827 b 147 849 195 872 243 895 b 237 825 234 756 232 687 b 229 569 233 451 249 334 b 207 313 165 291 124 268 b 98 253 143 241 156 245 b 172 250 188 255 205 259 b 213 262 219 268 215 276 b 228 283 241 289 255 295 b 258 275 261 255 265 234 z"},"s":{"x_min":0,"x_max":322,"ha":322,"o":"m 329 199 b 285 195 245 166 210 140 b 204 136 199 132 193 128 b 160 164 125 199 100 242 b 75 288 63 352 94 398 b 113 425 147 447 177 424 b 201 406 206 373 208 346 b 210 325 263 326 261 346 b 257 390 244 434 202 455 b 163 475 113 469 75 449 b 30 425 -13 377 -27 328 b -42 271 -13 217 22 175 b 55 135 94 101 129 63 b 128 61 126 59 125 57 b 101 24 79 -20 90 -62 b 99 -96 129 -120 163 -127 b 196 -134 234 -124 257 -97 b 285 -64 286 -25 271 14 b 259 45 241 72 220 97 b 232 107 243 116 256 125 b 280 143 312 168 342 171 b 377 174 354 202 329 199 z m 215 -74 b 207 -94 184 -102 166 -91 b 124 -66 139 -15 162 26 b 176 10 190 -6 201 -24 b 209 -38 222 -56 215 -74 z"},">":{"x_min":0,"x_max":425,"ha":425,"o":"m 373 281 b 363 325 301 337 264 342 b 208 350 145 348 92 366 b 77 371 31 355 59 342 b 92 326 120 311 157 303 b 176 298 195 295 215 292 b 227 290 250 290 261 282 b 290 262 214 227 199 219 b 160 199 119 183 79 166 b 60 158 42 143 59 124 b 75 105 113 105 134 113 b 189 132 243 155 294 184 b 326 202 384 236 373 281 z"},"l":{"x_min":0,"x_max":353,"ha":353,"o":"m 340 175 b 312 121 289 53 240 13 b 224 1 195 -10 181 -1 b 174 4 166 25 160 37 b 117 135 107 243 102 349 b 102 354 102 359 102 364 b 144 470 187 576 222 685 b 255 788 292 906 288 1014 b 285 1094 226 1173 139 1129 b 47 1083 14 961 -5 869 b -23 777 -25 681 -27 587 b -29 519 -29 450 -24 382 b -20 309 -12 236 5 165 b 19 111 38 46 83 8 b 128 -29 196 -48 251 -25 b 326 8 355 100 388 168 b 397 187 349 191 340 175 z m 105 705 b 110 798 121 889 140 980 b 147 1012 151 1072 180 1094 b 222 1126 233 1026 234 1002 b 235 894 200 783 166 681 b 146 620 123 559 99 498 b 99 567 101 636 105 705 z"},"8":{"x_min":0,"x_max":612,"ha":612,"o":"m 442 701 b 339 820 79 780 52 612 b 38 522 96 448 157 390 b 159 388 161 386 163 384 b 160 382 158 380 156 378 b 109 299 80 195 77 103 b 74 19 95 -68 151 -133 b 246 -243 443 -264 527 -128 b 550 -91 565 -55 561 -10 b 558 34 542 76 521 115 b 505 144 488 172 468 198 b 485 293 500 389 501 486 b 501 560 492 642 442 701 z m 280 734 b 399 735 441 619 445 519 b 449 431 437 343 422 256 b 399 283 375 308 350 333 b 284 398 201 456 166 545 b 132 632 177 734 280 734 z m 432 -164 b 392 -192 344 -200 297 -185 b 197 -154 142 -52 131 47 b 121 147 147 263 196 353 b 253 301 311 249 361 189 b 421 120 479 38 484 -55 b 487 -102 470 -136 432 -164 z"},"\\":{"x_min":0,"x_max":584,"ha":584,"o":"m 531 -213 b 464 -29 398 156 335 342 b 304 434 272 526 238 617 b 222 662 204 706 186 750 b 167 795 148 841 118 880 b 110 902 49 900 50 875 b 51 829 70 784 85 741 b 100 694 115 647 130 600 b 159 508 186 415 214 323 b 271 136 324 -54 402 -234 b 422 -278 551 -269 531 -213 z"},"e":{"x_min":0,"x_max":376,"ha":376,"o":"m 362 191 b 334 115 285 5 201 -23 b 97 -57 87 124 90 188 b 91 226 97 264 107 301 b 168 296 242 310 253 379 b 271 491 135 497 70 444 b -16 373 -36 236 -20 132 b -4 26 72 -67 187 -57 b 307 -47 375 83 410 183 b 417 203 369 208 362 191 z m 141 388 b 147 398 163 428 175 431 b 185 433 197 411 199 395 b 201 381 199 368 192 357 b 175 332 145 328 116 330 b 123 350 131 369 141 388 z"},"b":{"x_min":0,"x_max":578,"ha":578,"o":"m 565 168 b 530 124 485 108 437 102 b 445 145 447 190 444 231 b 438 328 365 504 237 437 b 180 407 151 333 130 276 b 125 263 121 250 117 236 b 115 279 112 322 111 364 b 110 383 109 403 109 422 b 161 546 231 661 275 789 b 297 854 313 922 314 991 b 315 1042 313 1109 256 1129 b 202 1149 144 1109 108 1071 b 63 1024 38 959 19 897 b -22 762 -29 619 -25 479 b -22 396 -18 312 -11 229 b -6 183 -2 138 5 93 b 12 51 16 13 49 -17 b 61 -28 122 -28 117 -6 b 122 6 124 18 124 30 b 125 32 126 34 127 36 b 135 107 150 177 173 245 b 192 298 214 361 256 400 b 329 468 336 302 336 263 b 336 207 332 151 318 97 b 280 95 243 90 209 74 b 167 54 113 3 136 -49 b 158 -98 233 -102 277 -93 b 363 -74 409 -7 430 71 b 499 77 564 92 611 153 b 628 173 577 183 565 168 z m 117 736 b 123 796 133 856 148 915 b 160 964 175 1019 202 1064 b 206 1070 216 1088 225 1092 b 242 1098 249 1077 253 1064 b 262 1036 261 1002 259 972 b 256 906 239 841 216 779 b 186 696 146 618 107 540 b 107 605 110 670 117 736 z m 270 -5 b 259 -18 230 -48 210 -45 b 190 -41 192 -11 197 2 b 202 16 212 28 223 37 b 247 57 278 63 308 65 b 299 40 287 15 270 -5 z"},"%":{"x_min":0,"x_max":981,"ha":981,"o":"m 903 825 b 879 833 842 832 823 813 b 664 656 526 480 394 299 b 329 210 267 118 207 26 b 177 -19 148 -64 121 -110 b 106 -135 91 -159 78 -184 b 67 -206 52 -229 50 -253 b 49 -272 86 -271 96 -264 b 141 -233 173 -180 206 -137 b 240 -92 272 -46 305 -1 b 370 89 434 179 500 268 b 632 445 775 615 924 779 b 942 799 923 818 903 825 z m 304 405 b 349 423 370 468 385 512 b 402 564 409 621 397 675 b 385 725 357 775 307 793 b 265 808 216 799 180 773 b 127 735 102 647 124 581 b 122 479 184 357 304 405 z m 196 728 b 222 765 268 785 303 749 b 329 723 342 685 346 649 b 353 588 341 501 293 457 b 280 446 267 435 253 446 b 240 455 235 479 232 492 b 229 503 227 513 226 524 b 226 525 226 526 226 528 b 223 556 224 584 227 613 b 229 635 197 645 169 642 b 171 674 181 706 196 728 z m 794 306 b 752 321 703 312 667 286 b 614 248 589 160 611 94 b 609 -8 671 -130 791 -82 b 837 -64 857 -19 872 25 b 889 77 896 134 884 188 b 873 238 844 288 794 306 z m 780 -30 b 767 -42 754 -52 740 -41 b 728 -32 723 -9 719 5 b 717 16 715 26 713 37 b 714 38 713 39 713 41 b 710 69 711 97 714 126 b 717 148 685 158 656 155 b 658 187 669 219 684 241 b 709 278 755 298 791 262 b 816 236 829 198 833 162 b 840 101 828 13 780 -30 z"},"m":{"x_min":0,"x_max":851,"ha":851,"o":"m 834 150 b 819 101 796 38 755 3 b 716 -30 706 -4 701 31 b 697 57 692 82 687 107 b 667 210 666 324 611 417 b 594 447 556 455 524 445 b 482 432 456 386 436 350 b 414 312 396 271 382 229 b 369 365 335 523 237 470 b 169 434 138 329 115 262 b 109 242 103 222 98 201 b 98 283 104 365 108 447 b 110 492 -2 492 -8 447 b -20 364 -21 280 -17 197 b -13 119 -10 22 35 -44 b 44 -57 81 -63 88 -44 b 91 -33 94 -22 97 -11 b 120 55 130 126 149 194 b 168 263 191 335 229 396 b 237 410 247 424 258 435 b 268 445 266 446 274 439 b 280 433 281 421 282 413 b 287 378 282 342 281 307 b 279 226 274 145 281 64 b 285 20 395 21 392 64 b 392 66 392 69 392 72 b 417 168 441 266 493 352 b 501 365 536 431 559 409 b 573 395 566 353 565 336 b 564 280 563 224 567 169 b 574 80 600 -41 710 -50 b 809 -58 862 64 885 142 b 892 164 840 168 834 150 z"},"#":{"x_min":0,"x_max":888,"ha":888,"o":"m 727 911 b 642 744 579 564 521 386 b 476 384 432 381 388 377 b 439 522 499 664 553 808 b 571 855 462 861 443 825 b 367 678 309 520 259 362 b 215 357 171 350 127 343 b 93 337 115 310 141 314 b 177 320 212 325 248 330 b 247 324 245 319 243 313 b 233 282 224 250 215 219 b 164 207 113 193 62 177 b 30 167 68 145 88 151 b 127 163 166 174 205 184 b 193 140 182 96 171 52 b 151 -33 124 -127 133 -215 b 136 -239 186 -238 195 -219 b 238 -140 256 -45 281 41 b 297 98 315 155 333 211 b 379 220 425 227 472 232 b 450 162 430 92 411 21 b 399 -28 387 -76 376 -126 b 366 -174 353 -226 364 -275 b 368 -292 408 -290 416 -279 b 447 -239 461 -188 477 -140 b 492 -90 507 -40 523 10 b 546 88 571 165 596 242 b 604 243 612 243 621 244 b 654 245 655 277 621 275 b 616 275 612 275 607 274 b 611 286 614 297 618 309 b 624 325 630 342 636 359 b 640 359 644 359 648 359 b 680 360 681 391 648 390 b 647 390 647 390 647 390 b 708 559 778 724 836 894 b 853 942 745 947 727 911 z m 499 321 b 493 302 487 283 482 264 b 435 259 389 253 343 245 b 349 264 355 282 362 301 b 366 316 372 330 377 345 b 421 349 466 352 510 355 b 507 343 503 332 499 321 z"},",":{"x_min":0,"x_max":257,"ha":257,"o":"m 104 69 b 90 37 77 5 66 -28 b 57 -56 42 -86 55 -113 b 62 -128 91 -128 103 -120 b 132 -102 146 -73 161 -43 b 177 -12 192 20 205 53 b 222 95 119 105 104 69 z"},"n":{"x_min":0,"x_max":591,"ha":591,"o":"m 575 173 b 559 122 543 69 512 25 b 503 12 489 -7 473 -14 b 456 -21 448 -11 439 3 b 427 24 425 49 421 73 b 410 130 403 188 395 245 b 388 297 380 355 348 398 b 323 431 289 456 247 437 b 205 418 183 367 165 328 b 140 276 121 221 105 165 b 105 166 105 166 105 166 b 102 247 105 328 103 408 b 102 454 -5 453 -12 408 b -26 312 -20 211 -7 114 b -2 74 1 22 23 -13 b 36 -33 83 -59 104 -33 b 112 -24 114 -12 114 1 b 115 2 115 2 115 3 b 143 115 170 228 222 331 b 228 342 252 401 268 404 b 293 408 286 352 287 337 b 288 276 290 214 297 154 b 304 101 315 52 351 11 b 380 -21 418 -54 465 -50 b 564 -42 600 87 624 165 b 630 187 580 191 575 173 z"},"h":{"x_min":0,"x_max":540,"ha":540,"o":"m 523 167 b 511 141 500 116 486 91 b 475 68 460 30 439 16 b 424 5 422 12 419 27 b 416 37 415 46 414 56 b 410 84 407 111 403 139 b 390 236 387 368 316 444 b 244 518 177 395 154 340 b 140 304 127 268 117 230 b 115 275 113 320 111 364 b 110 383 109 403 109 422 b 161 546 231 661 275 789 b 297 854 313 922 314 991 b 315 1042 313 1109 256 1129 b 202 1149 144 1109 108 1072 b 63 1025 38 959 19 897 b -22 762 -29 619 -25 479 b -22 396 -18 312 -11 229 b -6 183 -2 138 5 93 b 12 51 16 13 49 -17 b 61 -28 122 -28 117 -6 b 122 7 124 19 124 32 b 145 137 167 245 210 343 b 220 366 233 400 253 418 b 276 439 267 400 267 384 b 268 326 273 268 277 210 b 285 117 287 -5 402 -25 b 501 -42 544 88 574 159 b 583 180 531 186 523 167 z m 117 736 b 123 796 133 856 148 915 b 160 964 175 1019 201 1064 b 206 1070 216 1088 225 1092 b 242 1098 249 1077 253 1064 b 262 1036 261 1002 259 972 b 256 906 239 841 216 779 b 186 696 146 618 107 540 b 107 605 110 670 117 736 z"},"z":{"x_min":0,"x_max":420,"ha":420,"o":"m 418 160 b 379 145 340 127 303 108 b 263 177 193 222 116 233 b 128 248 139 264 150 280 b 166 305 192 344 183 375 b 175 404 154 418 125 422 b 82 429 35 425 -9 425 b -41 425 -41 395 -9 395 b 23 394 55 394 86 393 b 101 393 122 396 118 375 b 116 363 102 348 95 339 b 59 294 19 251 -24 212 b -38 200 -28 183 -15 175 b 3 163 30 164 50 170 b 131 195 187 130 215 57 b 168 28 123 -5 80 -40 b 30 -80 -18 -124 -55 -176 b -90 -224 -124 -292 -87 -348 b -57 -393 7 -398 56 -392 b 118 -384 178 -355 224 -311 b 315 -225 363 -75 329 46 b 327 56 323 66 319 76 b 360 98 401 117 444 134 b 476 147 438 169 418 160 z m 234 -52 b 230 -117 208 -181 174 -236 b 144 -285 99 -339 41 -355 b 0 -365 -40 -350 -47 -305 b -53 -271 -36 -237 -19 -208 b 15 -153 63 -108 113 -67 b 149 -36 187 -7 226 19 b 232 -6 235 -31 234 -52 z"},"B":{"x_min":0,"x_max":1321,"ha":1321,"o":"m 955 687 b 844 734 723 745 603 735 b 690 789 771 852 842 924 b 891 973 944 1040 935 1115 b 927 1190 838 1191 782 1180 b 627 1150 504 1021 417 897 b 324 764 263 610 227 452 b 210 382 199 311 191 241 b 186 315 183 390 181 465 b 174 702 183 937 190 1174 b 191 1220 75 1221 70 1174 b 45 937 46 696 58 458 b 64 341 72 224 86 107 b 93 49 102 -8 114 -65 b 119 -91 125 -118 132 -144 b 141 -176 154 -203 167 -233 b 174 -251 229 -252 228 -228 b 226 -200 227 -173 224 -144 b 225 118 242 386 336 632 b 356 621 385 624 405 629 b 548 666 702 695 848 650 b 976 610 1085 521 1127 390 b 1215 121 948 -171 678 -166 b 539 -164 417 -61 381 71 b 373 102 282 97 288 64 b 316 -85 447 -186 591 -216 b 755 -251 928 -190 1056 -87 b 1184 17 1271 171 1246 339 b 1222 503 1105 625 955 687 z m 642 1073 b 672 1096 704 1117 739 1131 b 770 1145 836 1171 866 1145 b 925 1095 820 996 786 964 b 664 850 513 759 361 693 b 367 707 373 721 380 735 b 442 863 529 984 642 1073 z"},"K":{"x_min":0,"x_max":1121,"ha":1121,"o":"m 440 -250 b 449 -261 493 -262 492 -242 b 489 -190 474 -137 467 -85 b 460 -33 453 19 446 70 b 437 142 429 214 422 287 b 467 315 510 346 551 379 b 636 378 719 355 789 299 b 943 176 936 -25 927 -203 b 925 -241 1019 -240 1024 -203 b 1052 -16 1009 200 847 315 b 768 371 678 400 585 407 b 644 458 700 512 751 568 b 830 655 903 751 961 853 b 990 905 1015 958 1033 1015 b 1048 1062 1063 1116 1036 1162 b 1026 1178 975 1172 986 1154 b 1009 1114 997 1069 984 1028 b 970 983 952 939 930 898 b 889 818 838 744 782 674 b 705 577 617 488 520 409 b 484 408 448 405 413 398 b 413 402 412 406 412 409 b 395 633 392 860 404 1085 b 407 1128 293 1130 290 1085 b 278 854 280 626 301 396 b 301 388 302 379 303 370 b 293 367 284 364 274 360 b 228 343 182 324 141 297 b 109 276 63 243 52 204 b 26 105 226 185 255 197 b 276 207 298 217 319 228 b 326 171 335 114 345 57 b 363 -43 377 -167 440 -250 z m 477 376 b 458 361 438 347 418 333 b 417 344 416 355 415 366 b 436 370 457 373 477 376 z m 155 198 b 144 194 133 191 121 188 b 99 183 104 193 111 209 b 119 225 137 240 150 252 b 185 282 226 302 267 320 b 280 325 293 330 307 335 b 309 312 311 290 314 268 b 263 239 211 215 155 198 z"},"R":{"x_min":0,"x_max":890,"ha":890,"o":"m 1073 -321 b 1064 -311 1043 -312 1031 -316 b 966 -340 904 -259 866 -215 b 819 -162 780 -102 745 -41 b 674 82 624 214 568 344 b 560 362 552 382 542 401 b 578 407 613 419 645 434 b 891 550 999 926 853 1155 b 784 1264 639 1245 555 1165 b 507 1119 471 1059 439 1001 b 404 938 375 872 350 805 b 267 582 236 347 222 111 b 208 236 196 361 188 487 b 173 745 169 1005 184 1263 b 187 1311 63 1313 61 1263 b 45 995 45 728 68 460 b 80 326 95 193 117 60 b 128 -6 141 -72 156 -138 b 167 -187 178 -236 226 -261 b 234 -265 285 -265 271 -246 b 268 -241 265 -235 263 -229 b 270 42 277 316 339 582 b 368 705 408 826 465 939 b 493 995 523 1050 560 1100 b 596 1149 650 1203 716 1200 b 855 1195 844 967 828 875 b 807 756 755 632 666 547 b 626 509 576 478 522 465 b 517 464 512 463 507 462 b 495 479 480 494 464 506 b 431 528 348 545 330 492 b 311 433 406 405 445 399 b 457 398 469 397 481 397 b 491 367 498 335 506 305 b 522 248 539 192 559 136 b 604 12 663 -107 747 -210 b 824 -306 941 -406 1071 -345 b 1083 -339 1081 -328 1073 -321 z m 416 473 b 407 478 400 473 410 483 b 420 494 428 481 436 473 b 439 469 442 466 446 462 b 435 464 424 468 416 473 z"},"T":{"x_min":0,"x_max":930,"ha":930,"o":"m 670 1059 b 658 868 658 675 664 484 b 667 362 673 239 684 117 b 689 54 696 -9 705 -72 b 713 -132 720 -196 740 -253 b 747 -272 795 -269 797 -248 b 805 -186 799 -121 797 -59 b 794 0 792 59 789 117 b 784 242 781 366 780 491 b 778 690 786 889 794 1088 b 980 1129 1167 1157 1357 1170 b 1373 1171 1406 1176 1406 1198 b 1406 1219 1373 1226 1357 1226 b 1169 1222 980 1187 797 1143 b 798 1172 799 1202 800 1231 b 802 1276 690 1276 685 1231 b 681 1191 677 1151 674 1111 b 580 1085 487 1058 394 1028 b 298 998 202 962 104 939 b 92 945 72 945 64 937 b 61 933 57 929 54 925 b 39 909 72 902 82 904 b 188 923 292 959 396 987 b 487 1011 578 1036 670 1059 z"},"P":{"x_min":0,"x_max":883,"ha":883,"o":"m 903 1015 b 880 1111 827 1206 738 1255 b 650 1303 546 1292 465 1235 b 379 1176 326 1085 289 990 b 245 879 216 762 197 645 b 190 599 184 554 179 508 b 170 736 178 963 188 1190 b 190 1237 71 1238 67 1190 b 44 950 47 707 60 467 b 67 346 78 225 94 106 b 102 48 110 -10 121 -67 b 131 -116 137 -176 177 -211 b 192 -224 258 -228 246 -195 b 246 -193 245 -191 245 -190 b 252 -187 257 -182 254 -174 b 215 -75 221 39 220 143 b 219 247 221 352 229 455 b 246 656 281 870 374 1051 b 414 1131 475 1212 562 1244 b 658 1278 753 1215 794 1129 b 834 1045 837 945 830 854 b 823 758 801 662 761 574 b 723 490 663 382 575 343 b 524 320 483 350 451 389 b 414 434 406 495 398 551 b 394 576 333 576 335 551 b 343 453 355 333 458 289 b 569 241 689 299 761 386 b 901 556 955 800 903 1015 z"},"|":{"x_min":0,"x_max":246,"ha":246,"o":"m 190 -2 b 187 85 183 173 183 260 b 181 437 185 614 189 791 b 190 840 70 840 65 791 b 48 613 47 433 54 253 b 58 166 63 78 72 -9 b 81 -98 89 -191 125 -275 b 134 -295 181 -292 185 -270 b 203 -182 193 -91 190 -2 z"},"t":{"x_min":0,"x_max":267,"ha":267,"o":"m 250 181 b 242 152 232 123 218 95 b 206 70 189 30 166 13 b 147 -1 133 -3 126 20 b 120 37 117 53 115 70 b 110 102 108 134 106 166 b 100 273 106 380 105 487 b 116 487 126 487 137 487 b 169 487 169 517 137 517 b 126 517 115 517 105 517 b 104 539 103 561 101 584 b 98 628 -7 628 -11 584 b -14 558 -16 533 -18 507 b -30 506 -42 504 -54 502 b -87 497 -66 471 -41 474 b -34 476 -27 476 -20 477 b -23 420 -23 362 -20 304 b -16 218 -10 120 28 40 b 56 -18 126 -58 188 -22 b 250 14 283 108 301 173 b 307 196 255 200 250 181 z"},"M":{"x_min":0,"x_max":1312,"ha":1312,"o":"m 1072 382 b 1083 252 1098 123 1119 -5 b 1128 -66 1138 -127 1153 -186 b 1165 -234 1184 -287 1246 -264 b 1263 -258 1267 -244 1255 -235 b 1247 -215 1252 -186 1250 -165 b 1247 -136 1243 -107 1240 -78 b 1233 -19 1226 41 1219 101 b 1208 217 1197 333 1190 449 b 1176 685 1175 922 1176 1159 b 1176 1201 1079 1204 1061 1168 b 1060 1167 1059 1166 1058 1165 b 980 1063 913 953 847 843 b 812 785 778 726 742 669 b 709 616 676 558 627 518 b 609 503 590 491 567 504 b 553 512 542 524 532 536 b 509 562 490 592 472 622 b 438 679 409 738 380 796 b 348 858 317 920 285 982 b 259 1034 237 1100 195 1142 b 194 1143 193 1144 192 1144 b 178 1178 84 1175 78 1134 b 41 873 44 604 67 341 b 78 218 92 93 123 -27 b 139 -87 158 -147 189 -201 b 212 -241 246 -270 294 -248 b 315 -239 294 -222 281 -220 b 282 -221 264 -156 262 -151 b 255 -127 248 -103 242 -79 b 229 -25 220 31 212 86 b 196 200 187 315 181 430 b 169 642 176 853 189 1065 b 189 1065 189 1064 189 1064 b 204 1034 220 1004 235 974 b 262 920 290 866 317 812 b 367 713 413 606 487 521 b 514 489 549 465 592 467 b 639 469 676 501 705 535 b 777 617 830 720 886 813 b 940 903 994 993 1054 1080 b 1042 847 1052 614 1072 382 z"},"g":{"x_min":0,"x_max":455,"ha":455,"o":"m 440 166 b 423 139 391 125 363 112 b 358 210 350 308 349 407 b 349 451 247 455 229 417 b 217 423 204 427 190 430 b 136 438 81 415 45 375 b -22 299 -43 180 -13 85 b 1 40 36 -1 86 -1 b 134 -1 164 25 188 64 b 207 98 221 134 231 172 b 234 133 238 94 241 56 b 200 37 160 17 122 -7 b 37 -61 -75 -155 -45 -269 b -17 -376 117 -404 208 -367 b 326 -321 358 -188 364 -75 b 366 -25 366 25 364 74 b 409 95 462 115 490 158 b 501 175 451 182 440 166 z m 188 217 b 180 182 171 148 157 115 b 147 92 131 50 105 36 b 84 58 81 106 80 130 b 79 171 82 212 94 251 b 105 286 121 322 144 351 b 155 366 172 387 192 382 b 202 380 210 374 218 367 b 207 317 199 267 188 217 z m 212 -282 b 189 -325 149 -360 97 -349 b 40 -337 2 -283 5 -226 b 11 -118 126 -44 211 2 b 222 7 233 13 243 18 b 251 -80 259 -195 212 -282 z"},"j":{"x_min":0,"x_max":281,"ha":281,"o":"m 266 166 b 248 138 217 125 188 112 b 184 219 176 327 175 434 b 175 482 55 482 52 434 b 44 320 56 205 65 92 b 66 80 67 68 68 56 b 23 35 -21 14 -62 -13 b -147 -69 -264 -175 -212 -290 b -166 -393 -24 -405 63 -351 b 174 -283 188 -142 190 -25 b 191 8 190 41 189 74 b 235 95 288 115 315 158 b 326 175 277 182 266 166 z m 55 -245 b 41 -289 9 -342 -40 -351 b -99 -361 -159 -311 -168 -254 b -186 -140 -63 -54 23 -6 b 38 3 54 11 71 19 b 78 -70 82 -163 55 -245 z m 91 504 b 93 503 96 502 100 502 b 112 499 128 501 134 509 b 156 538 284 677 207 700 b 174 710 139 687 119 662 b 111 652 104 642 99 631 b 94 641 89 651 82 660 b 64 683 26 697 1 674 b -26 651 -11 606 2 580 b 21 543 50 514 91 504 z"},"i":{"x_min":0,"x_max":270,"ha":270,"o":"m 255 171 b 230 127 205 83 169 47 b 163 41 145 19 136 23 b 132 24 126 43 124 47 b 115 69 113 92 111 115 b 102 223 110 329 110 437 b 110 486 -9 486 -14 437 b -21 361 -22 283 -17 208 b -12 144 -4 67 41 18 b 81 -26 145 -24 191 9 b 242 46 274 108 304 163 b 314 182 264 187 255 171 z m 36 503 b 49 500 66 501 72 509 b 94 535 225 663 159 694 b 128 709 89 687 67 664 b 58 654 50 643 43 631 b 39 642 33 653 27 662 b 9 686 -28 700 -54 678 b -81 656 -68 611 -56 584 b -39 545 -12 517 29 504 b 31 503 34 503 36 503 z"},"y":{"x_min":0,"x_max":547,"ha":547,"o":"m 532 166 b 515 138 483 125 454 112 b 450 219 442 327 441 434 b 441 482 321 482 318 434 b 317 421 317 409 316 396 b 304 340 291 284 270 231 b 251 181 222 119 173 92 b 144 77 135 110 127 133 b 117 161 111 190 107 220 b 97 285 100 352 98 418 b 97 466 -22 466 -25 418 b -31 310 -15 -5 166 49 b 245 72 292 138 321 215 b 324 174 328 133 331 92 b 332 80 333 68 334 56 b 289 35 245 14 204 -13 b 119 -69 3 -175 54 -290 b 100 -393 242 -405 329 -351 b 440 -283 454 -142 456 -25 b 457 8 456 41 456 74 b 501 95 554 115 582 158 b 593 175 543 182 532 166 z m 321 -245 b 307 -289 276 -342 226 -351 b 167 -361 107 -311 98 -254 b 80 -140 203 -54 289 -6 b 305 3 321 11 337 19 b 344 -70 348 -163 321 -245 z"},"@":{"x_min":0,"x_max":1133,"ha":1133,"o":"m 1079 513 b 1064 630 988 727 884 778 b 661 887 391 801 230 626 b 71 453 -4 182 93 -39 b 147 -161 259 -232 390 -244 b 531 -256 669 -204 783 -124 b 823 -96 749 -76 724 -91 b 637 -142 543 -193 439 -195 b 346 -196 257 -155 207 -74 b 100 99 140 331 243 495 b 337 645 503 772 688 761 b 779 756 867 711 919 635 b 977 550 980 437 952 340 b 937 289 914 240 880 200 b 858 174 807 114 771 143 b 728 177 714 242 705 293 b 696 354 689 416 696 477 b 698 490 682 494 667 493 b 639 566 536 551 479 525 b 399 488 329 419 290 339 b 255 269 214 141 309 100 b 403 60 480 143 535 208 b 565 245 592 284 616 325 b 615 310 614 296 615 281 b 619 226 633 165 671 123 b 761 19 912 88 983 176 b 1057 268 1095 396 1079 513 z m 517 268 b 494 237 468 209 439 184 b 427 174 398 146 381 147 b 386 147 377 151 374 156 b 368 166 366 176 365 187 b 357 260 399 345 439 404 b 468 447 588 586 620 475 b 622 470 627 467 633 465 b 599 397 564 329 517 268 z"},".":{"x_min":0,"x_max":238,"ha":238,"o":"m 85 62 b 76 36 67 10 60 -17 b 56 -28 53 -40 51 -52 b 48 -68 51 -74 62 -86 b 76 -102 115 -102 129 -86 b 159 -52 173 4 187 46 b 201 90 98 98 85 62 z"},"p":{"x_min":0,"x_max":543,"ha":543,"o":"m 536 168 b 512 155 486 150 459 149 b 481 249 456 372 376 428 b 249 517 178 300 153 217 b 136 160 122 102 112 44 b 111 54 111 63 111 73 b 109 136 107 198 108 260 b 109 327 115 394 113 461 b 112 507 6 504 -2 461 b -26 331 -18 191 -9 60 b -4 -6 1 -72 11 -137 b 20 -197 30 -262 69 -310 b 81 -324 119 -321 123 -301 b 127 -282 128 -261 127 -239 b 137 -145 147 -51 164 41 b 164 43 165 44 165 45 b 176 12 227 -6 259 -10 b 325 -19 387 10 424 65 b 435 81 444 100 451 121 b 493 121 535 127 573 147 b 599 161 553 176 536 168 z m 300 61 b 288 50 269 35 252 34 b 239 33 226 42 222 54 b 214 73 228 90 242 102 b 271 126 307 130 344 129 b 334 103 320 79 300 61 z m 362 199 b 360 185 357 171 353 157 b 337 158 321 158 306 157 b 259 153 200 134 174 91 b 192 183 217 278 263 357 b 274 376 294 413 319 413 b 348 413 360 376 364 353 b 372 303 370 249 362 199 z"},"X":{"x_min":0,"x_max":1151,"ha":1151,"o":"m 1061 1077 b 1118 1127 1177 1176 1248 1206 b 1281 1220 1241 1242 1220 1233 b 1115 1189 1028 1109 947 1031 b 864 950 788 863 716 772 b 688 736 660 699 633 662 b 600 745 572 829 547 915 b 514 1030 488 1147 463 1264 b 454 1305 348 1307 352 1264 b 372 1045 434 828 517 625 b 528 599 539 572 550 546 b 472 435 398 321 322 208 b 285 155 248 101 210 48 b 190 20 170 -8 149 -36 b 140 -47 131 -59 121 -69 b 115 -76 98 -96 86 -102 b 79 -100 70 -100 63 -103 b 56 -106 44 -115 54 -123 b 89 -150 132 -118 158 -92 b 199 -52 231 -1 264 45 b 336 144 405 246 473 348 b 506 398 540 447 573 496 b 648 336 738 183 844 40 b 881 -10 920 -60 963 -106 b 1004 -150 1042 -181 1103 -183 b 1137 -184 1136 -153 1103 -151 b 1095 -150 1074 -122 1068 -112 b 1053 -91 1039 -69 1024 -48 b 996 -7 966 33 939 74 b 881 162 828 251 779 343 b 733 430 691 519 653 610 b 735 724 822 835 918 938 b 964 987 1011 1033 1061 1077 z"},"*":{"x_min":0,"x_max":436,"ha":436,"o":"m 362 576 b 333 578 303 579 274 579 b 301 605 329 630 359 654 b 378 670 327 682 312 670 b 288 649 264 628 241 607 b 239 643 236 679 232 716 b 230 736 178 735 180 716 b 183 684 185 652 186 621 b 160 642 133 663 105 682 b 93 690 50 678 67 666 b 106 637 143 607 179 576 b 153 574 127 571 102 567 b 83 564 65 562 53 547 b 37 528 85 519 96 533 b 106 544 142 542 155 544 b 163 545 171 545 179 546 b 147 512 117 476 89 439 b 74 419 120 411 131 425 b 150 448 169 470 189 492 b 189 466 189 439 188 413 b 187 392 241 391 242 413 b 243 447 244 481 244 515 b 263 495 282 475 301 454 b 314 440 364 450 347 470 b 322 497 295 523 269 549 b 300 549 331 548 362 545 b 395 543 394 573 362 576 z"},"Y":{"x_min":0,"x_max":1159,"ha":1159,"o":"m 800 -339 b 897 -298 982 -232 1024 -133 b 1074 -16 1061 114 1039 236 b 984 538 942 840 906 1144 b 901 1193 778 1193 780 1144 b 780 1141 781 1137 781 1134 b 769 1011 734 891 684 778 b 640 682 583 572 482 524 b 371 471 284 619 252 705 b 208 824 212 954 195 1078 b 189 1124 73 1121 79 1078 b 107 878 103 616 310 508 b 399 462 493 473 571 534 b 650 595 699 687 738 776 b 761 830 781 884 797 940 b 814 773 843 607 877 443 b 901 330 935 218 952 103 b 966 3 963 -109 908 -197 b 803 -364 541 -383 371 -327 b 180 -265 39 -56 139 139 b 246 348 548 439 720 255 b 732 242 781 251 764 270 b 613 438 352 412 190 276 b 110 209 51 112 50 6 b 49 -98 105 -199 183 -266 b 344 -404 609 -418 800 -339 z"},"c":{"x_min":0,"x_max":378,"ha":378,"o":"m 364 191 b 338 119 296 28 227 -12 b 127 -70 97 73 93 144 b 88 224 102 311 138 384 b 144 397 154 421 166 430 b 185 444 195 420 201 404 b 218 357 218 305 218 256 b 219 235 271 235 271 256 b 270 323 276 461 186 475 b 94 488 24 401 -2 325 b -33 235 -37 111 15 28 b 61 -44 154 -78 235 -47 b 328 -12 381 95 412 183 b 419 203 371 208 364 191 z"},"!":{"x_min":0,"x_max":246,"ha":246,"o":"m 187 433 b 183 492 178 550 170 608 b 163 662 161 729 128 773 b 116 789 71 787 62 768 b 39 721 56 652 58 601 b 61 543 65 485 68 426 b 72 309 73 192 72 75 b 71 28 192 27 194 75 b 198 194 195 314 187 433 z m 117 -45 b 89 -107 97 -187 94 -254 b 93 -290 189 -291 190 -254 b 191 -187 200 -106 169 -45 b 161 -30 124 -29 117 -45 z"},"/":{"x_min":0,"x_max":784,"ha":784,"o":"m 629 829 b 509 668 406 493 307 319 b 258 232 212 144 168 54 b 124 -35 77 -127 51 -223 b 44 -247 91 -248 102 -236 b 172 -161 214 -62 262 27 b 309 116 357 204 408 291 b 508 467 622 633 731 804 b 754 841 650 856 629 829 z"},"[":{"x_min":0,"x_max":417,"ha":417,"o":"m 353 -273 b 336 -262 312 -263 294 -268 b 283 -272 269 -279 258 -281 b 255 -278 252 -274 250 -270 b 241 -248 232 -227 224 -204 b 208 -154 198 -103 190 -50 b 173 62 166 176 162 290 b 159 402 158 514 162 626 b 163 679 165 732 172 785 b 174 805 173 841 186 856 b 204 877 265 868 287 865 b 313 861 336 888 301 894 b 253 901 200 902 152 891 b 103 879 93 843 83 798 b 58 687 55 572 52 459 b 48 344 49 229 57 114 b 64 4 74 -110 107 -216 b 122 -265 142 -317 193 -337 b 249 -358 315 -343 361 -306 b 374 -295 364 -280 353 -273 z"},"6":{"x_min":0,"x_max":599,"ha":599,"o":"m 171 -156 b 236 -196 326 -193 397 -172 b 458 -153 518 -113 540 -50 b 561 11 546 80 492 119 b 396 188 260 173 159 114 b 156 225 185 339 230 441 b 256 501 290 558 328 612 b 348 639 368 665 391 689 b 409 707 454 751 483 742 b 502 736 542 757 509 768 b 439 792 370 734 319 693 b 257 643 206 579 165 511 b 83 374 28 195 59 34 b 73 -39 105 -115 171 -156 z m 426 113 b 483 87 507 26 488 -33 b 471 -90 419 -129 361 -139 b 233 -162 176 -41 163 67 b 236 127 338 154 426 113 z"},"r":{"x_min":0,"x_max":436,"ha":436,"o":"m 420 177 b 407 131 394 85 377 41 b 371 26 320 -89 301 -67 b 293 -57 295 -22 295 -10 b 294 13 294 37 295 60 b 297 110 300 159 303 209 b 305 248 212 253 192 220 b 169 199 136 173 107 187 b 133 209 155 241 172 267 b 202 312 225 364 234 418 b 242 461 239 523 196 549 b 151 576 101 549 66 519 b 22 481 -5 430 -19 374 b -31 323 -37 257 -11 209 b 15 161 65 145 117 149 b 142 151 165 158 186 169 b 184 115 185 60 197 8 b 210 -44 231 -96 290 -103 b 341 -109 378 -71 401 -29 b 434 32 451 102 469 170 b 475 191 425 195 420 177 z m 79 222 b 72 243 71 266 71 285 b 71 353 91 430 126 490 b 134 503 149 529 169 513 b 181 503 183 475 183 460 b 185 422 173 384 159 348 b 145 317 129 287 108 260 b 100 248 90 235 79 222 z"},"2":{"x_min":0,"x_max":624,"ha":624,"o":"m 64 -184 b 90 -203 122 -201 152 -197 b 197 -192 243 -185 289 -179 b 368 -170 457 -151 528 -200 b 544 -211 593 -196 566 -178 b 510 -139 441 -133 375 -137 b 339 -139 303 -144 267 -148 b 244 -150 222 -153 199 -156 b 196 -156 192 -156 189 -157 b 265 -110 333 -38 385 29 b 454 117 509 215 543 322 b 579 439 587 559 527 668 b 501 715 467 752 415 767 b 368 780 316 776 271 758 b 175 718 75 576 123 470 b 131 453 183 458 174 478 b 136 564 213 685 288 726 b 335 752 395 750 436 713 b 475 677 487 625 487 574 b 489 474 456 374 416 284 b 380 202 333 123 276 54 b 244 16 210 -21 173 -54 b 136 -87 89 -114 56 -150 b 44 -164 52 -175 64 -184 z"},"{":{"x_min":0,"x_max":580,"ha":580,"o":"m 526 -287 b 517 -275 493 -277 481 -280 b 409 -299 350 -286 316 -215 b 284 -148 276 -66 276 7 b 277 80 297 161 269 231 b 255 266 228 285 197 292 b 235 391 241 502 250 606 b 255 667 263 729 285 786 b 295 812 309 835 329 855 b 348 874 392 909 419 889 b 431 881 476 893 458 907 b 412 942 346 921 303 890 b 248 849 208 782 185 719 b 130 569 137 401 54 260 b 29 218 125 213 145 221 b 146 221 148 222 151 222 b 151 222 151 222 151 222 b 155 206 161 193 163 177 b 168 136 163 94 161 53 b 156 -26 164 -105 190 -180 b 210 -238 246 -294 303 -320 b 370 -351 448 -337 514 -313 b 527 -308 535 -299 526 -287 z"},"9":{"x_min":0,"x_max":724,"ha":724,"o":"m 271 714 b 178 667 86 576 57 474 b 31 379 81 281 182 264 b 281 248 376 324 436 395 b 481 448 514 507 542 568 b 542 522 544 476 546 429 b 551 333 559 238 541 142 b 528 67 495 -8 440 -62 b 415 -86 382 -112 344 -102 b 298 -90 270 -37 261 7 b 256 30 197 30 200 7 b 213 -93 297 -167 399 -159 b 502 -150 586 -68 629 22 b 677 122 678 237 670 346 b 665 407 657 468 647 529 b 642 560 636 591 630 622 b 624 658 608 692 604 728 b 602 748 556 750 550 732 b 515 638 479 543 422 460 b 394 420 361 383 322 353 b 288 328 232 286 194 323 b 123 391 170 504 219 570 b 248 608 281 642 317 673 b 346 697 430 754 459 704 b 468 689 517 692 508 711 b 467 792 328 743 271 714 z"}," ":{"x_min":0,"x_max":324,"ha":324,"o":""},"I":{"x_min":0,"x_max":543,"ha":543,"o":"m 492 1159 b 488 1171 467 1171 457 1170 b 411 1166 366 1159 321 1150 b 321 1152 321 1155 321 1157 b 321 1201 211 1201 210 1157 b 209 1145 209 1134 209 1122 b 159 1107 110 1089 62 1069 b 31 1055 68 1035 88 1043 b 127 1060 167 1075 207 1087 b 202 871 208 655 221 440 b 227 323 235 205 246 89 b 252 30 258 -29 266 -87 b 271 -124 275 -163 284 -200 b 232 -224 181 -248 130 -275 b 119 -280 121 -290 130 -297 b 140 -304 158 -302 169 -297 b 210 -276 252 -255 295 -235 b 298 -246 303 -256 308 -266 b 315 -280 356 -284 361 -266 b 367 -245 370 -223 371 -201 b 391 -192 411 -183 431 -175 b 465 -160 424 -138 402 -147 b 392 -151 381 -156 371 -161 b 370 -138 368 -116 367 -94 b 365 -33 361 28 357 89 b 350 206 342 323 338 440 b 328 665 326 891 322 1117 b 371 1127 421 1134 472 1139 b 482 1139 496 1147 492 1159 z"},"H":{"x_min":0,"x_max":1275,"ha":1275,"o":"m 1016 -122 b 1026 -173 1034 -231 1063 -275 b 1076 -293 1152 -302 1145 -269 b 1121 -166 1112 -57 1105 49 b 1097 159 1093 270 1091 381 b 1090 450 1090 520 1090 590 b 1096 591 1102 592 1109 594 b 1160 604 1213 608 1265 619 b 1310 629 1295 666 1254 665 b 1200 664 1144 655 1090 642 b 1090 779 1090 916 1087 1053 b 1087 1098 975 1098 973 1053 b 966 905 965 756 966 608 b 957 605 948 602 938 599 b 836 569 734 535 632 502 b 570 482 507 463 445 442 b 440 639 443 836 457 1033 b 460 1079 339 1081 336 1033 b 320 823 318 613 330 402 b 236 368 144 327 58 274 b 31 257 80 244 96 253 b 101 255 107 258 112 261 b 114 262 115 263 116 264 b 185 304 258 336 333 365 b 339 264 350 164 364 64 b 378 -38 391 -150 434 -245 b 442 -263 499 -264 496 -240 b 471 -26 453 190 446 406 b 516 429 587 450 656 470 b 754 499 852 528 951 555 b 956 557 962 558 967 560 b 968 498 970 436 972 374 b 976 263 981 152 993 42 b 999 -13 1006 -68 1016 -122 z"},"4":{"x_min":0,"x_max":752,"ha":752,"o":"m 118 144 b 162 142 203 163 235 191 b 281 229 317 279 346 333 b 409 343 474 350 537 363 b 539 325 542 287 545 250 b 551 171 557 93 569 15 b 580 -53 590 -145 651 -186 b 661 -192 694 -194 697 -179 b 705 -147 702 -120 698 -88 b 692 -50 688 -11 684 28 b 676 106 672 185 667 263 b 657 422 646 587 660 746 b 663 790 548 792 544 746 b 536 663 530 581 531 498 b 532 464 533 429 535 395 b 478 382 420 375 363 367 b 378 399 390 432 401 464 b 420 521 432 580 439 639 b 445 699 449 763 431 821 b 425 839 373 835 380 813 b 397 758 392 695 386 639 b 380 585 368 530 351 478 b 339 439 323 397 303 357 b 287 354 271 351 255 348 b 183 331 62 298 51 208 b 45 167 82 146 118 144 z m 104 204 b 105 229 126 253 145 268 b 184 298 236 311 284 321 b 256 273 221 229 177 198 b 157 183 102 156 104 204 z"},"D":{"x_min":0,"x_max":979,"ha":979,"o":"m 558 -55 b 447 -95 392 42 361 123 b 348 159 246 152 259 107 b 290 0 356 -101 473 -122 b 583 -142 692 -85 764 -4 b 915 168 943 435 923 654 b 913 770 886 891 836 997 b 792 1091 715 1159 606 1148 b 383 1126 298 863 252 680 b 219 549 201 415 191 280 b 186 348 183 415 181 483 b 174 710 187 937 204 1164 b 208 1210 92 1210 85 1164 b 49 934 44 701 55 469 b 61 353 72 238 88 123 b 103 22 118 -99 181 -182 b 191 -196 237 -195 238 -173 b 239 -142 235 -110 229 -78 b 232 109 238 297 266 483 b 283 591 306 697 341 800 b 370 884 406 970 467 1035 b 537 1110 651 1156 731 1069 b 801 992 819 883 830 784 b 853 582 840 356 757 168 b 718 78 655 -20 558 -55 z"},"^":{"x_min":0,"x_max":336,"ha":336,"o":"m 284 580 b 265 653 273 809 161 800 b 110 796 89 752 74 709 b 59 663 42 609 54 561 b 59 543 98 547 108 557 b 131 581 147 611 159 642 b 164 615 168 589 177 563 b 189 525 298 533 284 580 z"},"0":{"x_min":0,"x_max":597,"ha":597,"o":"m 82 74 b 90 -15 120 -112 202 -162 b 285 -212 387 -184 447 -112 b 505 -40 529 57 540 147 b 553 251 547 360 528 464 b 512 553 486 648 431 722 b 384 785 310 818 232 794 b 144 767 96 682 71 599 b 41 500 39 385 93 294 b 81 222 75 148 82 74 z m 117 573 b 135 642 168 723 235 758 b 316 800 378 728 412 661 b 482 522 498 350 478 197 b 468 120 449 40 413 -30 b 398 -60 378 -89 352 -111 b 339 -122 320 -136 303 -137 b 283 -137 265 -121 252 -108 b 197 -48 193 44 194 120 b 194 147 196 174 199 201 b 237 186 280 182 324 193 b 352 200 324 223 305 219 b 267 210 232 219 203 238 b 210 292 220 346 229 399 b 237 441 124 443 114 399 b 113 394 112 389 111 385 b 97 446 101 512 117 573 z"},"F":{"x_min":0,"x_max":857,"ha":857,"o":"m 314 471 b 324 464 342 466 352 471 b 421 504 492 534 563 562 b 564 514 567 466 569 419 b 575 302 586 186 603 71 b 618 -32 631 -161 701 -244 b 711 -256 759 -258 758 -235 b 756 -185 743 -133 736 -83 b 729 -27 724 28 718 84 b 706 200 699 316 695 432 b 692 491 691 550 691 609 b 751 629 811 649 872 667 b 888 671 899 685 887 700 b 875 714 845 714 829 708 b 783 693 737 676 691 659 b 691 784 693 910 694 1035 b 740 1049 786 1061 832 1073 b 880 1085 927 1096 975 1105 b 1008 1111 1067 1131 1099 1115 b 1118 1105 1145 1103 1164 1115 b 1182 1126 1180 1141 1164 1152 b 1125 1179 1073 1174 1028 1168 b 975 1160 923 1149 871 1136 b 812 1121 753 1105 694 1087 b 694 1102 694 1117 694 1132 b 693 1179 578 1179 575 1132 b 572 1103 570 1075 568 1046 b 567 1045 566 1045 565 1045 b 471 1013 379 977 290 933 b 243 910 197 884 153 856 b 115 832 78 807 51 770 b 47 764 54 758 58 755 b 76 742 99 741 118 749 b 139 758 130 770 115 775 b 141 801 173 820 204 839 b 243 862 283 883 323 902 b 402 939 483 969 566 996 b 559 867 558 737 562 607 b 478 571 396 533 314 493 b 303 488 306 477 314 471 z"},"`":{"x_min":0,"x_max":212,"ha":212,"o":"m 161 631 b 145 658 146 699 144 729 b 142 769 143 810 144 850 b 145 886 52 887 51 850 b 49 799 48 748 60 698 b 69 661 82 627 120 614 b 129 610 172 613 161 631 z"},"k":{"x_min":0,"x_max":556,"ha":556,"o":"m 540 168 b 511 127 488 81 451 46 b 426 23 396 6 364 25 b 345 36 330 55 316 72 b 274 125 223 193 154 206 b 211 228 266 254 316 291 b 357 322 447 410 373 457 b 313 494 227 451 180 410 b 151 385 129 355 113 323 b 112 337 111 350 111 364 b 110 383 109 403 109 422 b 161 546 231 661 275 789 b 297 854 313 922 314 991 b 315 1042 313 1109 256 1129 b 202 1149 144 1109 108 1071 b 63 1024 38 959 19 897 b -22 762 -29 619 -25 479 b -22 396 -18 312 -11 229 b -6 183 -2 138 5 93 b 12 51 16 13 49 -17 b 61 -28 122 -28 117 -6 b 127 19 124 40 123 68 b 123 100 122 131 120 163 b 187 89 244 -10 350 -23 b 476 -38 530 74 591 160 b 603 176 551 184 540 168 z m 117 736 b 123 796 133 856 148 915 b 160 964 175 1019 201 1064 b 206 1070 216 1088 225 1092 b 242 1098 249 1077 253 1064 b 262 1036 261 1002 259 972 b 256 906 239 841 216 779 b 186 696 146 618 107 540 b 107 605 110 670 117 736 z m 196 365 b 212 386 232 403 254 417 b 281 433 356 463 351 405 b 346 348 272 304 228 279 b 197 261 165 247 132 234 b 145 281 164 327 196 365 z"},"u":{"x_min":0,"x_max":534,"ha":534,"o":"m 518 177 b 507 134 487 93 461 57 b 454 46 428 10 417 20 b 405 30 400 68 398 82 b 378 181 384 282 377 382 b 374 430 259 430 256 382 b 256 379 255 375 255 371 b 255 371 255 371 255 371 b 249 303 238 235 220 169 b 213 146 168 -6 130 19 b 111 31 106 76 103 95 b 99 126 98 156 97 186 b 96 255 102 323 105 391 b 106 436 -1 434 -9 391 b -25 303 -28 207 -8 119 b 7 50 49 -19 127 -18 b 203 -17 237 51 258 114 b 261 125 265 136 268 146 b 278 89 295 24 348 -8 b 461 -77 549 85 567 173 b 570 190 522 193 518 177 z"},"]":{"x_min":0,"x_max":417,"ha":417,"o":"m 366 412 b 364 526 362 641 343 754 b 335 799 331 865 282 885 b 234 905 167 902 116 894 b 81 888 105 861 130 865 b 154 868 206 875 227 859 b 243 845 243 806 246 785 b 252 734 254 683 255 632 b 259 518 258 404 255 290 b 252 178 244 67 228 -44 b 220 -98 209 -152 193 -204 b 186 -225 180 -247 169 -266 b 168 -269 159 -279 161 -282 b 150 -280 131 -270 123 -268 b 105 -263 81 -262 64 -273 b 53 -280 43 -296 57 -306 b 96 -338 150 -353 200 -344 b 248 -335 277 -302 295 -259 b 337 -156 348 -42 357 67 b 366 182 369 297 366 412 z"},"U":{"x_min":0,"x_max":1170,"ha":1170,"o":"m 943 638 b 943 584 943 530 943 476 b 942 258 945 36 980 -180 b 987 -226 1104 -225 1099 -180 b 1076 32 1065 243 1059 455 b 1055 560 1052 664 1048 768 b 1046 822 1043 877 1040 931 b 1038 959 1037 986 1034 1013 b 1031 1034 1021 1063 1027 1084 b 1035 1109 987 1106 976 1096 b 944 1068 950 1010 949 972 b 948 956 947 939 947 923 b 929 796 901 670 863 547 b 820 413 771 269 685 156 b 645 104 586 39 514 41 b 452 42 399 94 366 143 b 289 257 258 410 234 543 b 203 711 194 881 176 1050 b 170 1100 48 1099 50 1050 b 58 880 75 710 110 543 b 142 392 184 221 289 103 b 382 -2 532 -33 649 53 b 771 143 833 303 883 442 b 906 506 926 572 943 638 z"},"o":{"x_min":0,"x_max":399,"ha":399,"o":"m 393 195 b 366 180 332 168 297 161 b 300 203 297 246 293 282 b 281 381 222 545 92 491 b 8 455 -26 338 1 252 b -5 247 -9 242 -10 235 b -22 167 -35 85 -2 21 b 28 -36 97 -53 156 -42 b 245 -24 281 49 293 129 b 343 137 391 154 429 174 b 455 188 409 203 393 195 z m 189 67 b 178 47 157 19 134 12 b 111 6 98 25 90 45 b 77 79 77 118 80 157 b 119 134 166 124 215 123 b 208 103 199 84 189 67 z m 225 154 b 171 154 120 168 85 203 b 87 214 88 225 89 235 b 91 252 72 262 50 263 b 37 310 46 363 66 406 b 78 431 95 458 122 468 b 161 483 187 441 202 412 b 243 336 248 240 225 154 z"},"N":{"x_min":0,"x_max":1254,"ha":1254,"o":"m 271 1191 b 295 1211 326 1150 337 1130 b 354 1097 369 1063 382 1028 b 408 963 430 895 448 827 b 521 556 552 268 682 15 b 727 -72 829 -236 951 -181 b 1002 -158 1032 -90 1050 -40 b 1075 31 1090 106 1102 180 b 1131 357 1143 539 1159 718 b 1176 904 1192 1089 1204 1275 b 1207 1323 1083 1325 1078 1275 b 1048 947 1030 618 1010 288 b 1006 212 1001 135 990 59 b 985 24 977 -11 970 -47 b 964 -80 961 -119 935 -144 b 876 -202 788 -70 762 -28 b 726 32 698 97 673 162 b 572 431 547 722 452 993 b 422 1079 356 1298 223 1230 b 166 1200 136 1126 116 1069 b 91 999 78 927 69 853 b 45 673 46 488 59 307 b 65 218 72 129 84 40 b 96 -46 107 -131 143 -211 b 155 -236 225 -233 217 -200 b 199 -127 202 -47 197 27 b 191 109 183 191 179 274 b 170 434 168 594 181 754 b 188 831 197 908 209 984 b 215 1019 221 1054 231 1088 b 239 1116 246 1172 271 1191 z"},"+":{"x_min":0,"x_max":378,"ha":378,"o":"m 304 425 b 282 424 261 424 240 423 b 240 493 243 564 246 635 b 248 679 138 679 132 635 b 122 560 119 486 122 410 b 104 408 86 404 67 401 b 33 394 55 367 81 372 b 95 375 109 377 123 379 b 124 353 126 326 129 299 b 133 263 135 218 154 186 b 167 164 228 157 238 186 b 249 220 243 257 242 293 b 241 326 240 359 240 392 b 261 393 282 394 304 394 b 337 394 337 425 304 425 z"},"G":{"x_min":0,"x_max":1128,"ha":1128,"o":"m 612 -173 b 695 -88 757 20 805 127 b 802 8 808 -113 833 -230 b 839 -259 871 -267 897 -267 b 913 -267 967 -258 961 -230 b 936 -106 920 19 913 146 b 910 207 909 268 908 329 b 908 369 906 409 905 449 b 916 454 928 458 939 463 b 981 479 1026 492 1066 512 b 1102 531 1048 554 1028 550 b 986 540 945 524 904 507 b 904 513 904 520 904 526 b 906 550 844 551 841 526 b 840 509 838 493 836 476 b 813 465 791 455 769 444 b 683 404 600 359 519 310 b 492 294 540 280 556 288 b 641 332 726 374 814 411 b 818 413 823 415 828 417 b 824 388 820 359 817 329 b 817 327 817 324 816 322 b 784 193 724 69 651 -40 b 600 -118 533 -194 447 -234 b 403 -254 351 -267 305 -247 b 268 -232 244 -201 225 -167 b 181 -84 172 15 173 107 b 175 214 193 321 220 425 b 265 599 340 767 456 905 b 517 977 604 1068 701 1084 b 810 1102 875 982 871 888 b 871 869 921 868 922 888 b 927 976 882 1066 800 1103 b 702 1146 590 1109 506 1053 b 326 933 207 742 136 541 b 97 431 69 315 57 198 b 45 85 45 -39 90 -145 b 131 -245 220 -307 329 -308 b 438 -308 537 -250 612 -173 z"},"q":{"x_min":0,"x_max":541,"ha":541,"o":"m 531 184 b 467 136 402 91 334 50 b 332 93 333 137 335 179 b 338 268 345 358 355 445 b 360 490 242 493 237 445 b 235 435 234 425 233 415 b 233 415 232 415 232 415 b 219 422 205 427 189 430 b 135 438 80 415 44 375 b -22 299 -44 180 -14 85 b 0 40 35 -1 85 -1 b 133 -1 164 25 187 64 b 196 80 204 96 210 113 b 211 91 212 69 214 46 b 224 -64 255 -199 379 -228 b 474 -250 539 -149 519 -63 b 505 -2 453 35 396 43 b 458 82 517 123 574 169 b 593 185 544 194 531 184 z m 187 217 b 179 182 170 148 156 115 b 146 92 130 50 104 36 b 84 58 81 106 80 130 b 78 171 82 212 93 251 b 104 286 121 322 143 351 b 155 366 171 387 192 382 b 201 380 209 374 217 367 b 207 317 198 267 187 217 z m 469 -117 b 464 -149 424 -232 383 -185 b 359 -157 354 -109 347 -74 b 342 -47 339 -19 337 9 b 417 43 481 -43 469 -117 z"},"d":{"x_min":0,"x_max":607,"ha":607,"o":"m 594 175 b 565 121 542 53 493 13 b 477 1 449 -10 435 -1 b 428 4 419 25 414 37 b 371 135 361 243 356 349 b 355 354 355 359 355 364 b 397 470 441 576 476 685 b 509 788 546 906 541 1014 b 538 1094 479 1173 392 1129 b 301 1083 268 961 249 869 b 230 777 228 681 226 587 b 225 531 225 474 227 418 b 216 423 203 427 189 430 b 135 438 80 415 44 375 b -22 299 -44 180 -14 85 b 0 40 35 -2 85 -1 b 133 -1 164 25 187 64 b 217 116 233 175 245 235 b 249 211 253 188 259 165 b 272 111 292 46 337 8 b 381 -29 450 -48 505 -25 b 580 8 609 100 641 168 b 650 187 602 191 594 175 z m 187 217 b 179 182 170 148 156 115 b 146 92 130 50 104 36 b 84 58 81 106 80 130 b 78 171 82 212 93 251 b 104 286 121 322 143 351 b 155 366 171 387 192 382 b 201 380 209 374 217 367 b 207 317 198 267 187 217 z m 359 705 b 364 798 374 889 394 980 b 401 1012 405 1072 433 1094 b 476 1126 487 1026 487 1002 b 489 894 453 783 420 681 b 399 620 376 559 353 498 b 353 567 355 636 359 705 z"},"1":{"x_min":0,"x_max":511,"ha":511,"o":"m 101 606 b 125 668 235 804 285 693 b 320 617 316 519 315 438 b 315 240 290 43 295 -155 b 295 -160 296 -165 299 -169 b 282 -169 266 -169 249 -169 b 216 -170 216 -200 249 -200 b 313 -200 378 -197 442 -191 b 451 -190 465 -183 461 -172 b 457 -160 436 -160 427 -161 b 422 -161 418 -161 413 -162 b 414 -160 415 -157 415 -155 b 426 -33 429 91 428 213 b 427 333 428 458 401 575 b 383 654 339 759 245 768 b 156 776 79 690 51 614 b 43 593 94 588 101 606 z"},"5":{"x_min":0,"x_max":689,"ha":689,"o":"m 243 714 b 248 715 253 717 260 719 b 227 663 199 606 173 547 b 164 527 144 496 157 473 b 171 449 205 444 230 442 b 292 437 349 442 407 412 b 456 387 497 347 521 297 b 572 191 533 46 463 -43 b 394 -131 255 -153 198 -39 b 140 76 196 272 347 274 b 380 275 380 305 347 305 b 207 305 113 186 99 54 b 92 -8 107 -69 156 -112 b 205 -156 272 -174 337 -172 b 486 -166 585 -56 622 81 b 642 151 648 223 620 292 b 596 352 552 401 498 436 b 426 481 349 491 267 497 b 265 497 263 497 262 497 b 247 498 246 499 260 500 b 262 512 269 526 273 538 b 280 559 287 580 294 601 b 309 645 318 688 325 733 b 326 735 326 737 325 739 b 412 764 530 792 542 729 b 546 707 600 710 596 729 b 579 813 452 798 391 786 b 343 777 297 761 251 748 b 200 734 127 714 100 775 b 93 792 42 787 51 767 b 83 692 177 698 243 714 z"}}}
